<svg width="97" height="90" viewBox="0 0 97 90" fill="none" xmlns="http://www.w3.org/2000/svg">
<mask id="path-1-inside-1_103_49" fill="white">
<path fill-rule="evenodd" clip-rule="evenodd" d="M52 90H97V0H52V56H86V73H52V90Z"/>
</mask>
<path fill-rule="evenodd" clip-rule="evenodd" d="M52 90H97V0H52V56H86V73H52V90Z" fill="#B30738"/>
<path d="M52 90H49V93H52V90ZM97 90V93H100V90H97ZM97 0H100V-3H97V0ZM52 0V-3H49V0H52ZM52 56H49V59H52V56ZM86 56H89V53H86V56ZM86 73V76H89V73H86ZM52 73V70H49V73H52ZM52 93H97V87H52V93ZM100 90V0H94V90H100ZM97 -3H52V3H97V-3ZM49 0V56H55V0H49ZM86 53H52V59H86V53ZM89 73V56H83V73H89ZM52 76H86V70H52V76ZM49 73V90H55V73H49Z" fill="#B30738" mask="url(#path-1-inside-1_103_49)"/>
<mask id="path-3-inside-2_103_49" fill="white">
<path fill-rule="evenodd" clip-rule="evenodd" d="M45 0C20.1472 0 0 20.1472 0 45C0 69.8528 20.1472 90 45 90V72.9929C44.8335 72.9976 44.6668 73 44.5 73C42.2019 73 39.9262 72.5473 37.803 71.6679C35.6798 70.7884 33.7507 69.4994 32.1256 67.8744C30.5006 66.2493 29.2116 64.3202 28.3321 62.197C27.4527 60.0738 27 57.7981 27 55.5H44.5H45V0Z"/>
</mask>
<path fill-rule="evenodd" clip-rule="evenodd" d="M45 0C20.1472 0 0 20.1472 0 45C0 69.8528 20.1472 90 45 90V72.9929C44.8335 72.9976 44.6668 73 44.5 73C42.2019 73 39.9262 72.5473 37.803 71.6679C35.6798 70.7884 33.7507 69.4994 32.1256 67.8744C30.5006 66.2493 29.2116 64.3202 28.3321 62.197C27.4527 60.0738 27 57.7981 27 55.5H44.5H45V0Z" fill="white"/>
<path d="M45 0H48V-3H45V0ZM45 90V93H48V90H45ZM45 72.9929H48V69.9059L44.9143 69.9941L45 72.9929ZM37.803 71.6679L38.9511 68.8963L37.803 71.6679ZM32.1256 67.8744L30.0043 69.9957H30.0043L32.1256 67.8744ZM27 55.5V52.5H24V55.5H27ZM45 55.5V58.5H48V55.5H45ZM45 -3C18.4903 -3 -3 18.4903 -3 45H3C3 21.804 21.804 3 45 3V-3ZM-3 45C-3 71.5097 18.4903 93 45 93V87C21.804 87 3 68.196 3 45H-3ZM48 90V72.9929H42V90H48ZM44.5 76C44.6953 76 44.8906 75.9972 45.0857 75.9916L44.9143 69.9941C44.7764 69.998 44.6383 70 44.5 70V76ZM36.655 74.4395C39.1422 75.4697 41.8079 76 44.5 76V70C42.5958 70 40.7103 69.6249 38.9511 68.8963L36.655 74.4395ZM30.0043 69.9957C31.9079 71.8993 34.1678 73.4093 36.655 74.4395L38.9511 68.8963C37.1919 68.1676 35.5934 67.0995 34.2469 65.753L30.0043 69.9957ZM25.5605 63.345C26.5907 65.8322 28.1007 68.0921 30.0043 69.9957L34.2469 65.753C32.9005 64.4066 31.8324 62.8081 31.1037 61.0489L25.5605 63.345ZM24 55.5C24 58.1921 24.5302 60.8578 25.5605 63.345L31.1037 61.0489C30.3751 59.2897 30 57.4042 30 55.5H24ZM44.5 52.5H27V58.5H44.5V52.5ZM45 52.5H44.5V58.5H45V52.5ZM48 55.5V0H42V55.5H48Z" fill="#B30738" mask="url(#path-3-inside-2_103_49)"/>
<circle cx="22" cy="37" r="9.5" stroke="#B30738" stroke-width="3"/>
<circle cx="76" cy="37" r="9.5" fill="white" stroke="#B30738" stroke-width="3"/>
</svg>
